<svg width="1173" height="420" viewBox="0 0 1173 420" fill="none" xmlns="http://www.w3.org/2000/svg">
<g clip-path="url(#clip0_5_33)">
<path d="M88.9817 166.879L487.891 111.783L195.549 218.393L88.9817 166.879Z" fill="url(#paint0_linear_5_33)"/>
<path d="M478.795 114.045L195.625 217.309L92.4009 167.412L478.795 114.045Z" stroke="white" stroke-opacity="0.11" stroke-width="2"/>
<path d="M-148.794 443.507L310.24 316.648L-43.426 333.963L-148.794 443.507Z" fill="url(#paint1_linear_5_33)"/>
<path d="M301.29 318.088L-145.573 441.584L-42.9982 334.944L301.29 318.088Z" stroke="white" stroke-opacity="0.11" stroke-width="2"/>
<path d="M756.728 163.31L1046.86 200.242L915.57 230.124L756.728 163.31Z" fill="url(#paint2_linear_5_33)"/>
<path d="M1041.17 200.522L915.682 229.083L763.857 165.221L1041.17 200.522Z" stroke="white" stroke-opacity="0.11" stroke-width="2"/>
<path d="M743.846 223.724L669 205.018L704.891 200.458L743.846 223.724Z" fill="url(#paint3_linear_5_33)"/>
<path d="M674.368 205.333L704.656 201.485L737.529 221.119L674.368 205.333Z" stroke="white" stroke-opacity="0.11" stroke-width="2"/>
<path d="M799.921 73.003L778.379 77.7937L787.25 70.7951L799.921 73.003Z" fill="url(#paint4_linear_5_33)"/>
<path d="M782.4 75.8807L787.5 71.857L794.785 73.1264L782.4 75.8807Z" stroke="white" stroke-opacity="0.11" stroke-width="2"/>
<path d="M908.9 125.653L887.693 119.548L898.831 117.649L908.9 125.653Z" fill="url(#paint5_linear_5_33)"/>
<path d="M892.139 119.793L898.543 118.701L904.331 123.303L892.139 119.793Z" stroke="white" stroke-opacity="0.11" stroke-width="2"/>
<path d="M479.914 74.5921L458.119 78.0503L467.403 71.6099L479.914 74.5921Z" fill="url(#paint6_linear_5_33)"/>
<path d="M462.249 76.388L467.587 72.6852L474.78 74.3998L462.249 76.388Z" stroke="white" stroke-opacity="0.11" stroke-width="2"/>
<path d="M687.194 137.77L709.25 137.036L699.24 142.278L687.194 137.77Z" fill="url(#paint7_linear_5_33)"/>
<path d="M704.945 138.174L699.191 141.188L692.265 138.596L704.945 138.174Z" stroke="white" stroke-opacity="0.11" stroke-width="2"/>
<path d="M346.858 232.631L367.418 224.614L359.717 232.883L346.858 232.631Z" fill="url(#paint8_linear_5_33)"/>
<path d="M363.736 227.117L359.308 231.871L351.915 231.727L363.736 227.117Z" stroke="white" stroke-opacity="0.11" stroke-width="2"/>
<path d="M711 342.338L799.681 321.634L767.274 315.933L711 342.338Z" fill="url(#paint9_linear_5_33)"/>
<path d="M794.704 321.776L719.964 339.225L767.391 316.971L794.704 321.776Z" stroke="white" stroke-opacity="0.11" stroke-width="2"/>
<path d="M1089.73 107L1215.64 149.437L1149.02 160.567L1089.73 107Z" fill="url(#paint10_linear_5_33)"/>
<path d="M1211.54 149.115L1094 109.498L1149.35 159.506L1211.54 149.115Z" stroke="white" stroke-opacity="0.11" stroke-width="2"/>
<path d="M424.543 251.526L613.542 270.202L536.542 233.202L424.543 251.526Z" fill="url(#paint11_linear_5_33)"/>
<path d="M608.049 268.66L536.412 234.237L432.214 251.285L608.049 268.66Z" stroke="white" stroke-opacity="0.11" stroke-width="2"/>
<path d="M583.848 160.697L623.567 178.086L607.994 159.098L583.848 160.697Z" fill="url(#paint12_linear_5_33)"/>
<path d="M620.188 175.525L607.562 160.13L587.985 161.426L620.188 175.525Z" stroke="white" stroke-opacity="0.11" stroke-width="2"/>
<path d="M405.758 351.242L479.887 331.287L430.5 331.287L405.758 351.242Z" fill="url(#paint13_linear_5_33)"/>
<path d="M472.41 332.275L430.86 332.275L410.044 349.064L472.41 332.275Z" stroke="white" stroke-opacity="0.11" stroke-width="2"/>
<path d="M319.524 72.1701L384.884 53.7976L355.379 52.5634L319.524 72.1701Z" fill="url(#paint14_linear_5_33)"/>
<path d="M378.615 54.526L355.633 53.5648L327.705 68.8366L378.615 54.526Z" stroke="white" stroke-opacity="0.11" stroke-width="2"/>
<path d="M23.4543 98.0709L199.127 25.8997L87 42L23.4543 98.0709Z" fill="url(#paint15_linear_5_33)"/>
<path d="M191.36 28.0155L87.4547 42.9352L28.5688 94.8945L191.36 28.0155Z" stroke="white" stroke-opacity="0.11" stroke-width="2"/>
<path d="M983.465 41.8592L1081.38 51.7L1020.4 22.3203L983.465 41.8592Z" fill="url(#paint16_linear_5_33)"/>
<path d="M1075.89 50.1517L1020.44 23.4358L986.852 41.2032L1075.89 50.1517Z" stroke="white" stroke-opacity="0.11" stroke-width="2"/>
<path d="M898 321.75L1231.23 368.615L1106.63 297.815L898 321.75Z" fill="url(#paint17_linear_5_33)"/>
<path d="M1226.19 366.901L905.836 321.848L1106.4 298.838L1226.19 366.901Z" stroke="white" stroke-opacity="0.11" stroke-width="2"/>
</g>
<defs>
<linearGradient id="paint0_linear_5_33" x1="178.98" y1="289.676" x2="160.902" y2="119.372" gradientUnits="userSpaceOnUse">
<stop stop-color="white" stop-opacity="0.5"/>
<stop offset="1" stop-color="white" stop-opacity="0"/>
</linearGradient>
<linearGradient id="paint1_linear_5_33" x1="28" y1="258" x2="66.4338" y2="420.726" gradientUnits="userSpaceOnUse">
<stop stop-color="white" stop-opacity="0.5"/>
<stop offset="1" stop-color="white" stop-opacity="0"/>
</linearGradient>
<linearGradient id="paint2_linear_5_33" x1="703.526" y1="296.127" x2="728.169" y2="126.648" gradientUnits="userSpaceOnUse">
<stop stop-color="white" stop-opacity="0.5"/>
<stop offset="1" stop-color="white" stop-opacity="0"/>
</linearGradient>
<linearGradient id="paint3_linear_5_33" x1="763.627" y1="188.133" x2="750.926" y2="235.107" gradientUnits="userSpaceOnUse">
<stop stop-color="white" stop-opacity="0.5"/>
<stop offset="1" stop-color="white" stop-opacity="0"/>
</linearGradient>
<linearGradient id="paint4_linear_5_33" x1="801.243" y1="57.6522" x2="804.754" y2="75.5454" gradientUnits="userSpaceOnUse">
<stop stop-color="white" stop-opacity="0.5"/>
<stop offset="1" stop-color="white" stop-opacity="0"/>
</linearGradient>
<linearGradient id="paint5_linear_5_33" x1="917.408" y1="112.808" x2="911.925" y2="130.198" gradientUnits="userSpaceOnUse">
<stop stop-color="white" stop-opacity="0.5"/>
<stop offset="1" stop-color="white" stop-opacity="0"/>
</linearGradient>
<linearGradient id="paint6_linear_5_33" x1="482.177" y1="59.3516" x2="484.581" y2="77.4266" gradientUnits="userSpaceOnUse">
<stop stop-color="white" stop-opacity="0.5"/>
<stop offset="1" stop-color="white" stop-opacity="0"/>
</linearGradient>
<linearGradient id="paint7_linear_5_33" x1="683.063" y1="152.613" x2="682.914" y2="134.379" gradientUnits="userSpaceOnUse">
<stop stop-color="white" stop-opacity="0.5"/>
<stop offset="1" stop-color="white" stop-opacity="0"/>
</linearGradient>
<linearGradient id="paint8_linear_5_33" x1="347.89" y1="248.004" x2="341.694" y2="230.855" gradientUnits="userSpaceOnUse">
<stop stop-color="white" stop-opacity="0.5"/>
<stop offset="1" stop-color="white" stop-opacity="0"/>
</linearGradient>
<linearGradient id="paint9_linear_5_33" x1="800" y1="258" x2="814.096" y2="346.479" gradientUnits="userSpaceOnUse">
<stop stop-color="white" stop-opacity="0.5"/>
<stop offset="1" stop-color="white" stop-opacity="0"/>
</linearGradient>
<linearGradient id="paint10_linear_5_33" x1="1187.2" y1="118.223" x2="1163.54" y2="164.687" gradientUnits="userSpaceOnUse">
<stop offset="0.00293321" stop-color="white" stop-opacity="0.5"/>
<stop offset="1" stop-color="white" stop-opacity="0"/>
</linearGradient>
<linearGradient id="paint11_linear_5_33" x1="509" y1="181.5" x2="495.237" y2="271.421" gradientUnits="userSpaceOnUse">
<stop stop-color="white" stop-opacity="0.5"/>
<stop offset="1" stop-color="white" stop-opacity="0"/>
</linearGradient>
<linearGradient id="paint12_linear_5_33" x1="602" y1="123" x2="583.097" y2="166.882" gradientUnits="userSpaceOnUse">
<stop stop-color="white" stop-opacity="0.5"/>
<stop offset="1" stop-color="white" stop-opacity="0"/>
</linearGradient>
<linearGradient id="paint13_linear_5_33" x1="405.456" y1="310.496" x2="423.832" y2="362.819" gradientUnits="userSpaceOnUse">
<stop stop-color="white" stop-opacity="0.5"/>
<stop offset="1" stop-color="white" stop-opacity="0"/>
</linearGradient>
<linearGradient id="paint14_linear_5_33" x1="345.354" y1="49.6667" x2="351.272" y2="68.5215" gradientUnits="userSpaceOnUse">
<stop stop-color="white" stop-opacity="0.5"/>
<stop offset="1" stop-color="white" stop-opacity="0"/>
</linearGradient>
<linearGradient id="paint15_linear_5_33" x1="65.1901" y1="-3.39254" x2="95.2196" y2="82.476" gradientUnits="userSpaceOnUse">
<stop stop-color="white" stop-opacity="0.5"/>
<stop offset="1" stop-color="white" stop-opacity="0"/>
</linearGradient>
<linearGradient id="paint16_linear_5_33" x1="1010.99" y1="-20.7999" x2="997.466" y2="51.8786" gradientUnits="userSpaceOnUse">
<stop stop-color="white" stop-opacity="0.5"/>
<stop offset="1" stop-color="white" stop-opacity="0"/>
</linearGradient>
<linearGradient id="paint17_linear_5_33" x1="1147" y1="257" x2="1125.42" y2="366.935" gradientUnits="userSpaceOnUse">
<stop stop-color="white" stop-opacity="0.5"/>
<stop offset="1" stop-color="white" stop-opacity="0"/>
</linearGradient>
<clipPath id="clip0_5_33">
<rect width="1173" height="420" fill="white"/>
</clipPath>
</defs>
</svg>
