<svg width="1173" height="326" viewBox="0 0 1173 326" fill="none" xmlns="http://www.w3.org/2000/svg">
<g clip-path="url(#clip0_24_2)">
<path d="M927.684 -61.3423L1161.24 158.21L949.053 30.4224L927.684 -61.3423Z" fill="url(#paint0_linear_24_2)"/>
<path d="M1153.77 152.552L949.943 29.8011L929.417 -58.3469L1153.77 152.552Z" stroke="white" stroke-opacity="0.11" stroke-width="2"/>
<path d="M880.75 12.0701L984.99 164.569L915.817 115.103L880.75 12.0701Z" fill="url(#paint1_linear_24_2)"/>
<path d="M981.003 160.501L916.669 114.495L884.055 18.6702L981.003 160.501Z" stroke="white" stroke-opacity="0.11" stroke-width="2"/>
<path d="M1005.57 137.385L1049.41 201.937L1044 174.266L1005.57 137.385Z" fill="url(#paint2_linear_24_2)"/>
<path d="M1047.49 197.343L1011.69 144.634L1043.07 174.748L1047.49 197.343Z" stroke="white" stroke-opacity="0.11" stroke-width="2"/>
<path d="M1119.15 59.3618L1156.48 81.4158L1143.31 60.6873L1119.15 59.3618Z" fill="url(#paint3_linear_24_2)"/>
<path d="M1153.44 78.4653L1142.76 61.6595L1123.17 60.5848L1153.44 78.4653Z" stroke="white" stroke-opacity="0.11" stroke-width="2"/>
<path d="M1060 -6.97932L1128.34 27.985L1091.73 -5.16427L1060 -6.97932Z" fill="url(#paint4_linear_24_2)"/>
<path d="M1122.14 23.6991L1091.34 -4.18981L1064.64 -5.71683L1122.14 23.6991Z" stroke="white" stroke-opacity="0.11" stroke-width="2"/>
<path d="M160.011 263.737L274.76 96.1974L203.058 144.545L160.011 263.737Z" fill="url(#paint5_linear_24_2)"/>
<path d="M270.98 99.9555L163.583 256.762L203.872 145.206L270.98 99.9555Z" stroke="white" stroke-opacity="0.11" stroke-width="2"/>
<path d="M397.464 219.919L420.502 131.816L400.346 157.825L397.464 219.919Z" fill="url(#paint6_linear_24_2)"/>
<path d="M418.307 136.284L398.89 210.538L401.32 158.205L418.307 136.284Z" stroke="white" stroke-opacity="0.11" stroke-width="2"/>
<path d="M474.717 22.1197L465.371 120.082L494.442 58.953L474.717 22.1197Z" fill="url(#paint7_linear_24_2)"/>
<path d="M466.891 114.583L493.327 58.997L475.39 25.5034L466.891 114.583Z" stroke="white" stroke-opacity="0.11" stroke-width="2"/>
<path d="M400.904 -37.7587L304.557 158.114L391.115 62.8436L400.904 -37.7587Z" fill="url(#paint8_linear_24_2)"/>
<path d="M308.571 152.209L399.392 -32.4312L390.164 62.4018L308.571 152.209Z" stroke="white" stroke-opacity="0.11" stroke-width="2"/>
<path d="M36.2548 70.7364L168.978 -12.5177L80.0721 16.26L36.2548 70.7364Z" fill="url(#paint9_linear_24_2)"/>
<path d="M161.682 -9.11514L80.6788 17.1045L40.7565 66.7385L161.682 -9.11514Z" stroke="white" stroke-opacity="0.11" stroke-width="2"/>
<path d="M76.1682 224.795L129.961 170.026L87.3853 195.054L76.1682 224.795Z" fill="url(#paint10_linear_24_2)"/>
<path d="M124.016 174.667L88.1967 195.723L78.7596 220.745L124.016 174.667Z" stroke="white" stroke-opacity="0.11" stroke-width="2"/>
<path d="M847.422 80.1178L823.665 -7.7946L819.087 24.7903L847.422 80.1178Z" fill="url(#paint11_linear_24_2)"/>
<path d="M823.979 -2.82603L844.001 71.2669L820.121 24.6366L823.979 -2.82603Z" stroke="white" stroke-opacity="0.11" stroke-width="2"/>
<path d="M274.64 244.777L285.908 225.802L284.929 237.059L274.64 244.777Z" fill="url(#paint12_linear_24_2)"/>
<path d="M284.547 230.042L283.985 236.513L278.069 240.951L284.547 230.042Z" stroke="white" stroke-opacity="0.11" stroke-width="2"/>
<path d="M753.57 54.5272L775.376 92.0033L774.008 67.4839L753.57 54.5272Z" fill="url(#paint13_linear_24_2)"/>
<path d="M774.159 87.9412L773.05 68.062L756.479 57.5572L774.159 87.9412Z" stroke="white" stroke-opacity="0.11" stroke-width="2"/>
<path d="M871.922 192.775L846.384 148L848.16 175.508L871.922 192.775Z" fill="url(#paint14_linear_24_2)"/>
<path d="M847.647 152.216L849.116 174.965L868.766 189.245L847.647 152.216Z" stroke="white" stroke-opacity="0.11" stroke-width="2"/>
<path d="M707.866 54.5933L694.53 -11.9772L691.05 17.3475L707.866 54.5933Z" fill="url(#paint15_linear_24_2)"/>
<path d="M694.779 -5.67054L692.068 17.1708L705.166 46.1819L694.779 -5.67054Z" stroke="white" stroke-opacity="0.11" stroke-width="2"/>
<path d="M1183.67 245.407L1116 181.308L1153.96 199.077L1183.67 245.407Z" fill="url(#paint16_linear_24_2)"/>
<path d="M1121.15 184.812L1153.26 199.844L1178.39 239.038L1121.15 184.812Z" stroke="white" stroke-opacity="0.11" stroke-width="2"/>
<path d="M472.224 253.557L483.289 186.571L466.115 230.272L472.224 253.557Z" fill="url(#paint17_linear_24_2)"/>
<path d="M480.776 195.675L467.164 230.313L472.006 248.768L480.776 195.675Z" stroke="white" stroke-opacity="0.11" stroke-width="2"/>
<path d="M736.839 191.991L708 120.436L732.778 146.799L736.839 191.991Z" fill="url(#paint18_linear_24_2)"/>
<path d="M710.899 124.965L731.808 147.212L735.236 185.349L710.899 124.965Z" stroke="white" stroke-opacity="0.11" stroke-width="2"/>
<path d="M550.473 120.694L553.063 163.976L562.885 141.468L550.473 120.694Z" fill="url(#paint19_linear_24_2)"/>
<path d="M553.806 159.801L561.769 141.553L551.706 124.71L553.806 159.801Z" stroke="white" stroke-opacity="0.11" stroke-width="2"/>
<path d="M962.668 248.614L949.698 230.759L959.649 236.111L962.668 248.614Z" fill="url(#paint20_linear_24_2)"/>
<path d="M953.053 233.686L958.775 236.763L960.51 243.951L953.053 233.686Z" stroke="white" stroke-opacity="0.11" stroke-width="2"/>
<path d="M122.351 265.137L114.881 285.903L113.71 274.665L122.351 265.137Z" fill="url(#paint21_linear_24_2)"/>
<path d="M115.414 281.483L114.741 275.021L119.709 269.544L115.414 281.483Z" stroke="white" stroke-opacity="0.11" stroke-width="2"/>
<path d="M1125.9 285.015L1110 269.711L1120.74 273.235L1125.9 285.015Z" fill="url(#paint22_linear_24_2)"/>
<path d="M1113.82 272.004L1119.99 274.03L1122.96 280.803L1113.82 272.004Z" stroke="white" stroke-opacity="0.11" stroke-width="2"/>
<path d="M563.8 45.3815L584.088 -10.0556L562.878 11.2245L563.8 45.3815Z" fill="url(#paint23_linear_24_2)"/>
<path d="M581.608 -6.16733L563.889 11.6097L564.659 40.1437L581.608 -6.16733Z" stroke="white" stroke-opacity="0.11" stroke-width="2"/>
<path d="M32.2042 244.733L16.5903 260.328L20.3249 249.664L32.2042 244.733Z" fill="url(#paint24_linear_24_2)"/>
<path d="M18.9582 256.557L21.1053 250.426L27.9351 247.591L18.9582 256.557Z" stroke="white" stroke-opacity="0.11" stroke-width="2"/>
<path d="M51.4286 104.91L69.6941 92.5261L64.0227 102.299L51.4286 104.91Z" fill="url(#paint25_linear_24_2)"/>
<path d="M66.6601 95.7847L63.3994 101.403L56.1587 102.905L66.6601 95.7847Z" stroke="white" stroke-opacity="0.11" stroke-width="2"/>
</g>
<defs>
<linearGradient id="paint0_linear_24_2" x1="896.614" y1="55.7967" x2="993.067" y2="-40.5435" gradientUnits="userSpaceOnUse">
<stop stop-color="white" stop-opacity="0.5"/>
<stop offset="1" stop-color="white" stop-opacity="0"/>
</linearGradient>
<linearGradient id="paint1_linear_24_2" x1="795.717" y1="42.6498" x2="886.086" y2="-16.7918" gradientUnits="userSpaceOnUse">
<stop stop-color="white" stop-opacity="0.5"/>
<stop offset="1" stop-color="white" stop-opacity="0"/>
</linearGradient>
<linearGradient id="paint2_linear_24_2" x1="1100.4" y1="182.614" x2="1033.97" y2="221.11" gradientUnits="userSpaceOnUse">
<stop stop-color="white" stop-opacity="0.5"/>
<stop offset="1" stop-color="white" stop-opacity="0"/>
</linearGradient>
<linearGradient id="paint3_linear_24_2" x1="1141.72" y1="24.1301" x2="1117.66" y2="65.4107" gradientUnits="userSpaceOnUse">
<stop stop-color="white" stop-opacity="0.5"/>
<stop offset="1" stop-color="white" stop-opacity="0"/>
</linearGradient>
<linearGradient id="paint4_linear_24_2" x1="1087.13" y1="-37.3856" x2="1065.63" y2="13.7338" gradientUnits="userSpaceOnUse">
<stop stop-color="white" stop-opacity="0.5"/>
<stop offset="1" stop-color="white" stop-opacity="0"/>
</linearGradient>
<linearGradient id="paint5_linear_24_2" x1="191.829" y1="111.775" x2="245.458" y2="152.94" gradientUnits="userSpaceOnUse">
<stop stop-color="white" stop-opacity="0.5"/>
<stop offset="1" stop-color="white" stop-opacity="0"/>
</linearGradient>
<linearGradient id="paint6_linear_24_2" x1="364.359" y1="101.86" x2="449.202" y2="130.649" gradientUnits="userSpaceOnUse">
<stop stop-color="white" stop-opacity="0.5"/>
<stop offset="1" stop-color="white" stop-opacity="0"/>
</linearGradient>
<linearGradient id="paint7_linear_24_2" x1="537.514" y1="49.3263" x2="464.769" y2="36.1707" gradientUnits="userSpaceOnUse">
<stop stop-color="white" stop-opacity="0.5"/>
<stop offset="1" stop-color="white" stop-opacity="0"/>
</linearGradient>
<linearGradient id="paint8_linear_24_2" x1="390.396" y1="128.802" x2="327.016" y2="93.244" gradientUnits="userSpaceOnUse">
<stop stop-color="white" stop-opacity="0.5"/>
<stop offset="1" stop-color="white" stop-opacity="0"/>
</linearGradient>
<linearGradient id="paint9_linear_24_2" x1="55.9896" y1="-17.5924" x2="92.4178" y2="48.0168" gradientUnits="userSpaceOnUse">
<stop stop-color="white" stop-opacity="0.5"/>
<stop offset="1" stop-color="white" stop-opacity="0"/>
</linearGradient>
<linearGradient id="paint10_linear_24_2" x1="55.2593" y1="189.821" x2="97.6166" y2="225.616" gradientUnits="userSpaceOnUse">
<stop stop-color="white" stop-opacity="0.5"/>
<stop offset="1" stop-color="white" stop-opacity="0"/>
</linearGradient>
<linearGradient id="paint11_linear_24_2" x1="760.059" y1="-5.91476" x2="847.997" y2="-23.0601" gradientUnits="userSpaceOnUse">
<stop stop-color="white" stop-opacity="0.5"/>
<stop offset="1" stop-color="white" stop-opacity="0"/>
</linearGradient>
<linearGradient id="paint12_linear_24_2" x1="284.918" y1="256.256" x2="269.478" y2="246.555" gradientUnits="userSpaceOnUse">
<stop stop-color="white" stop-opacity="0.5"/>
<stop offset="1" stop-color="white" stop-opacity="0"/>
</linearGradient>
<linearGradient id="paint13_linear_24_2" x1="790.469" y1="34.8036" x2="749.314" y2="59.0773" gradientUnits="userSpaceOnUse">
<stop stop-color="white" stop-opacity="0.5"/>
<stop offset="1" stop-color="white" stop-opacity="0"/>
</linearGradient>
<linearGradient id="paint14_linear_24_2" x1="846.228" y1="186.751" x2="868.443" y2="172.47" gradientUnits="userSpaceOnUse">
<stop stop-color="white" stop-opacity="0.5"/>
<stop offset="1" stop-color="white" stop-opacity="0"/>
</linearGradient>
<linearGradient id="paint15_linear_24_2" x1="687.398" y1="27.1225" x2="706.649" y2="22.6592" gradientUnits="userSpaceOnUse">
<stop stop-color="white" stop-opacity="0.5"/>
<stop offset="1" stop-color="white" stop-opacity="0"/>
</linearGradient>
<linearGradient id="paint16_linear_24_2" x1="1218.05" y1="223.496" x2="1183.87" y2="258.448" gradientUnits="userSpaceOnUse">
<stop stop-color="white" stop-opacity="0.5"/>
<stop offset="1" stop-color="white" stop-opacity="0"/>
</linearGradient>
<linearGradient id="paint17_linear_24_2" x1="465" y1="208.5" x2="483.706" y2="213.367" gradientUnits="userSpaceOnUse">
<stop stop-color="white" stop-opacity="0.5"/>
<stop offset="1" stop-color="white" stop-opacity="0"/>
</linearGradient>
<linearGradient id="paint18_linear_24_2" x1="777.261" y1="187.086" x2="731.788" y2="204.409" gradientUnits="userSpaceOnUse">
<stop stop-color="white" stop-opacity="0.5"/>
<stop offset="1" stop-color="white" stop-opacity="0"/>
</linearGradient>
<linearGradient id="paint19_linear_24_2" x1="592.301" y1="119.704" x2="544.624" y2="122.84" gradientUnits="userSpaceOnUse">
<stop stop-color="white" stop-opacity="0.5"/>
<stop offset="1" stop-color="white" stop-opacity="0"/>
</linearGradient>
<linearGradient id="paint20_linear_24_2" x1="977.276" y1="243.716" x2="962.259" y2="254.059" gradientUnits="userSpaceOnUse">
<stop stop-color="white" stop-opacity="0.5"/>
<stop offset="1" stop-color="white" stop-opacity="0"/>
</linearGradient>
<linearGradient id="paint21_linear_24_2" x1="110.085" y1="255.813" x2="127.083" y2="262.413" gradientUnits="userSpaceOnUse">
<stop stop-color="white" stop-opacity="0.5"/>
<stop offset="1" stop-color="white" stop-opacity="0"/>
</linearGradient>
<linearGradient id="paint22_linear_24_2" x1="1139.42" y1="277.631" x2="1126.45" y2="290.447" gradientUnits="userSpaceOnUse">
<stop stop-color="white" stop-opacity="0.5"/>
<stop offset="1" stop-color="white" stop-opacity="0"/>
</linearGradient>
<linearGradient id="paint23_linear_24_2" x1="523.359" y1="18.3383" x2="574.128" y2="36.6359" gradientUnits="userSpaceOnUse">
<stop stop-color="white" stop-opacity="0.5"/>
<stop offset="1" stop-color="white" stop-opacity="0"/>
</linearGradient>
<linearGradient id="paint24_linear_24_2" x1="25.0883" y1="231.067" x2="37.6464" y2="244.288" gradientUnits="userSpaceOnUse">
<stop stop-color="white" stop-opacity="0.5"/>
<stop offset="1" stop-color="white" stop-opacity="0"/>
</linearGradient>
<linearGradient id="paint25_linear_24_2" x1="55.8506" y1="119.67" x2="45.9996" y2="104.325" gradientUnits="userSpaceOnUse">
<stop stop-color="white" stop-opacity="0.5"/>
<stop offset="1" stop-color="white" stop-opacity="0"/>
</linearGradient>
<clipPath id="clip0_24_2">
<rect width="1173" height="326" fill="white"/>
</clipPath>
</defs>
</svg>
