<svg width="159" height="215" viewBox="0 0 159 215" fill="none" xmlns="http://www.w3.org/2000/svg">
<path fill-rule="evenodd" clip-rule="evenodd" d="M158.821 162.662C159.821 -50.2384 2.12073 -56.8384 0.12073 158.762C-0.57927 174.162 1.62073 185.862 10.5207 186.462C17.6833 185.696 19.1659 178.623 20.4768 172.368C21.5635 167.184 22.5322 162.562 26.5207 162.562C32.6817 162.562 33.0717 172.772 33.493 183.803C33.9881 196.765 34.5265 210.862 44.5207 210.862C52.1422 210.862 53.714 200.183 55.3089 189.347C56.9367 178.287 58.5887 167.064 66.7207 166.862C72.5058 166.715 73.3636 173.057 74.2432 179.561C75.1578 186.324 76.0961 193.262 82.6207 193.262C86.9327 193.262 88.5727 189.564 90.1487 186.011C91.6063 182.725 93.0093 179.562 96.4207 179.562C100.766 179.562 101.794 188.244 102.818 196.898C103.844 205.569 104.866 214.212 109.221 214.062C112.381 213.97 113.213 203.639 114.118 192.392V192.392C115.19 179.085 116.364 164.495 121.621 164.062C129.061 163.424 131.022 174.424 132.893 184.916C134.541 194.166 136.12 203.021 141.321 203.162C154.721 204.862 159.121 179.762 158.821 162.662ZM74.9207 80.5616C71.0207 76.4616 42.1207 55.7616 32.1207 48.6616C30.3207 47.3616 27.8207 48.0616 26.9207 50.1616C14.7207 80.0616 46.5207 100.262 73.8207 84.6616C75.3207 83.8616 76.0207 81.7616 74.9207 80.5616ZM133.321 50.1616C145.521 80.0616 113.721 100.262 86.4207 84.6616C85.0207 83.8616 84.3207 81.7616 85.4207 80.5616C89.0885 76.7058 114.956 58.1682 126.258 50.0684L126.3 50.0382C127 49.537 127.643 49.0761 128.221 48.6616C130.021 47.4616 132.521 48.1616 133.321 50.1616ZM137.521 88.2616C133.445 95.9495 129.026 103.466 124.662 110.89C124.314 111.481 123.967 112.072 123.621 112.662C122.854 113.995 122.076 115.328 121.298 116.662C119.743 119.328 118.187 121.995 116.721 124.662C114.521 128.662 112.321 132.662 110.721 136.762C109.921 138.762 109.221 140.862 109.121 142.262C109.051 142.541 109.079 142.722 109.102 142.874C109.112 142.941 109.121 143.001 109.121 143.062C109.121 143.162 109.621 143.462 110.321 143.662C111.921 144.062 114.021 144.162 116.121 143.962C118.321 143.762 120.521 143.462 122.721 143.162C129.748 141.898 136.901 140.136 144.08 138.367L144.08 138.367C145.992 137.896 147.906 137.424 149.821 136.962C141.721 141.862 133.221 145.862 123.921 148.662C121.621 149.362 119.221 149.962 116.721 150.262C114.221 150.562 111.621 150.862 108.621 150.362C107.121 150.062 105.321 149.362 103.721 147.762C102.921 146.962 102.321 145.762 102.121 144.662L102.121 144.661C102.021 144.161 101.921 143.662 101.921 143.162C101.856 142.836 101.875 142.596 101.897 142.33C101.909 142.187 101.921 142.036 101.921 141.862C102.099 139.007 102.914 136.868 103.727 134.736C103.826 134.478 103.924 134.22 104.021 133.962C108.021 124.862 113.221 117.062 118.821 109.462C124.621 102.062 130.721 94.8616 137.521 88.2616ZM40.5207 110.262C34.9207 102.662 28.8207 95.5616 22.0207 88.9616C25.6732 95.7795 29.4574 102.334 33.213 108.839C34.0844 110.348 34.9544 111.855 35.8207 113.362C36.5874 114.695 37.3651 116.028 38.1429 117.362C39.6985 120.028 41.2541 122.695 42.7207 125.362C44.9207 129.362 47.1207 133.462 48.7207 137.462C49.5207 139.362 50.2207 141.462 50.3207 142.962V143.762C50.3207 143.862 49.8207 144.162 49.1207 144.362C47.6207 144.762 45.4207 144.862 43.3207 144.662C41.2207 144.562 38.9207 144.262 36.7207 143.862C29.9848 142.651 23.1916 140.981 16.2977 139.288C14.0829 138.743 11.8577 138.197 9.62073 137.662C17.7207 142.562 26.3207 146.562 35.4207 149.462C37.8207 150.162 40.1207 150.662 42.6207 151.062C45.1207 151.462 47.7207 151.662 50.7207 151.162C52.3207 150.862 54.1207 150.162 55.6207 148.562C56.3207 147.762 56.9207 146.562 57.2207 145.462C57.2707 145.212 57.2957 144.962 57.3207 144.712C57.3457 144.462 57.3707 144.212 57.4207 143.962C57.4883 143.624 57.4646 143.332 57.4421 143.054C57.4313 142.921 57.4207 142.791 57.4207 142.662C57.1323 139.585 56.2891 137.34 55.4246 135.038C55.39 134.946 55.3554 134.854 55.3207 134.762C51.4207 125.662 46.1207 117.862 40.5207 110.262Z" fill="white"/>
</svg>
